<svg width="98" height="56" viewBox="0 0 98 56" fill="none" xmlns="http://www.w3.org/2000/svg">
<path d="M0.959999 10.52C0.959999 9.4 1.18 8.42 1.62 7.58C2.07333 6.72667 2.69333 6.07333 3.48 5.62C4.28 5.15333 5.18 4.92 6.18 4.92C7.22 4.92 8.11333 5.16 8.86 5.64C9.62 6.12 10.1667 6.73333 10.5 7.48V5.08H11.9V16H10.5V13.58C10.1533 14.3267 9.6 14.9467 8.84 15.44C8.09333 15.92 7.2 16.16 6.16 16.16C5.17333 16.16 4.28 15.9267 3.48 15.46C2.69333 14.9933 2.07333 14.3333 1.62 13.48C1.18 12.6267 0.959999 11.64 0.959999 10.52ZM10.5 10.54C10.5 9.66 10.32 8.88667 9.96 8.22C9.6 7.55333 9.10667 7.04 8.48 6.68C7.86667 6.32 7.18667 6.14 6.44 6.14C5.66667 6.14 4.97333 6.31333 4.36 6.66C3.74667 7.00667 3.26 7.51333 2.9 8.18C2.55333 8.83333 2.38 9.61333 2.38 10.52C2.38 11.4133 2.55333 12.2 2.9 12.88C3.26 13.5467 3.74667 14.06 4.36 14.42C4.97333 14.7667 5.66667 14.94 6.44 14.94C7.18667 14.94 7.86667 14.76 8.48 14.4C9.10667 14.04 9.6 13.5267 9.96 12.86C10.32 12.1933 10.5 11.42 10.5 10.54Z" fill="white"/>
<path d="M19.6761 4.92C20.7028 4.92 21.5961 5.16 22.3561 5.64C23.1161 6.12 23.6628 6.72667 23.9961 7.46V5.08H25.3961V16.28C25.3961 17.28 25.1761 18.1667 24.7361 18.94C24.3094 19.7133 23.7094 20.3067 22.9361 20.72C22.1628 21.1467 21.2828 21.36 20.2961 21.36C18.8961 21.36 17.7294 21.0267 16.7961 20.36C15.8761 19.6933 15.3028 18.7867 15.0761 17.64H16.4561C16.6961 18.4 17.1494 19.0067 17.8161 19.46C18.4961 19.9133 19.3228 20.14 20.2961 20.14C21.0028 20.14 21.6361 19.9867 22.1961 19.68C22.7561 19.3867 23.1961 18.9467 23.5161 18.36C23.8361 17.7733 23.9961 17.08 23.9961 16.28V13.58C23.6494 14.3267 23.0961 14.9467 22.3361 15.44C21.5894 15.92 20.7028 16.16 19.6761 16.16C18.6761 16.16 17.7761 15.9267 16.9761 15.46C16.1894 14.9933 15.5694 14.3333 15.1161 13.48C14.6761 12.6267 14.4561 11.64 14.4561 10.52C14.4561 9.4 14.6761 8.42 15.1161 7.58C15.5694 6.72667 16.1894 6.07333 16.9761 5.62C17.7761 5.15333 18.6761 4.92 19.6761 4.92ZM23.9961 10.54C23.9961 9.66 23.8161 8.88667 23.4561 8.22C23.0961 7.55333 22.6028 7.04 21.9761 6.68C21.3628 6.32 20.6828 6.14 19.9361 6.14C19.1628 6.14 18.4694 6.31333 17.8561 6.66C17.2428 7.00667 16.7561 7.51333 16.3961 8.18C16.0494 8.83333 15.8761 9.61333 15.8761 10.52C15.8761 11.4133 16.0494 12.2 16.3961 12.88C16.7561 13.5467 17.2428 14.06 17.8561 14.42C18.4694 14.7667 19.1628 14.94 19.9361 14.94C20.6828 14.94 21.3628 14.76 21.9761 14.4C22.6028 14.04 23.0961 13.5267 23.4561 12.86C23.8161 12.1933 23.9961 11.42 23.9961 10.54Z" fill="white"/>
<path d="M38.4722 9.98C38.4722 10.46 38.4589 10.8267 38.4322 11.08H29.3722C29.4122 11.9067 29.6122 12.6133 29.9722 13.2C30.3322 13.7867 30.8055 14.2333 31.3922 14.54C31.9789 14.8333 32.6189 14.98 33.3122 14.98C34.2189 14.98 34.9789 14.76 35.5922 14.32C36.2189 13.88 36.6322 13.2867 36.8322 12.54H38.3122C38.0455 13.6067 37.4722 14.48 36.5922 15.16C35.7255 15.8267 34.6322 16.16 33.3122 16.16C32.2855 16.16 31.3655 15.9333 30.5522 15.48C29.7389 15.0133 29.0989 14.36 28.6322 13.52C28.1789 12.6667 27.9522 11.6733 27.9522 10.54C27.9522 9.40667 28.1789 8.41333 28.6322 7.56C29.0855 6.70667 29.7189 6.05333 30.5322 5.6C31.3455 5.14667 32.2722 4.92 33.3122 4.92C34.3522 4.92 35.2589 5.14667 36.0322 5.6C36.8189 6.05333 37.4189 6.66667 37.8322 7.44C38.2589 8.2 38.4722 9.04667 38.4722 9.98ZM37.0522 9.94C37.0655 9.12667 36.8989 8.43333 36.5522 7.86C36.2189 7.28667 35.7589 6.85333 35.1722 6.56C34.5855 6.26667 33.9455 6.12 33.2522 6.12C32.2122 6.12 31.3255 6.45333 30.5922 7.12C29.8589 7.78667 29.4522 8.72667 29.3722 9.94H37.0522ZM33.2122 2.24L30.5322 3.92V2.78L33.2122 1.14L35.8922 2.78V3.92L33.2122 2.24Z" fill="white"/>
<path d="M46.1536 4.88C47.4603 4.88 48.5269 5.28667 49.3536 6.1C50.1803 6.9 50.5936 8.06667 50.5936 9.6V16H49.2136V9.76C49.2136 8.57333 48.9136 7.66667 48.3136 7.04C47.7269 6.41333 46.9203 6.1 45.8936 6.1C44.8403 6.1 44.0003 6.43333 43.3736 7.1C42.7469 7.76667 42.4336 8.74667 42.4336 10.04V16H41.0336V5.08H42.4336V6.94C42.7803 6.27333 43.2803 5.76667 43.9336 5.42C44.5869 5.06 45.3269 4.88 46.1536 4.88Z" fill="white"/>
<path d="M53.0498 10.54C53.0498 9.40667 53.2765 8.42 53.7298 7.58C54.1832 6.72667 54.8098 6.07333 55.6098 5.62C56.4098 5.15333 57.3232 4.92 58.3498 4.92C59.6965 4.92 60.8032 5.25333 61.6698 5.92C62.5498 6.58667 63.1165 7.49333 63.3698 8.64H61.8698C61.6832 7.85333 61.2765 7.24 60.6498 6.8C60.0365 6.34667 59.2698 6.12 58.3498 6.12C57.6165 6.12 56.9565 6.28667 56.3698 6.62C55.7832 6.95333 55.3165 7.45333 54.9698 8.12C54.6365 8.77333 54.4698 9.58 54.4698 10.54C54.4698 11.5 54.6365 12.3133 54.9698 12.98C55.3165 13.6467 55.7832 14.1467 56.3698 14.48C56.9565 14.8133 57.6165 14.98 58.3498 14.98C59.2698 14.98 60.0365 14.76 60.6498 14.32C61.2765 13.8667 61.6832 13.24 61.8698 12.44H63.3698C63.1165 13.56 62.5498 14.46 61.6698 15.14C60.7898 15.82 59.6832 16.16 58.3498 16.16C57.3232 16.16 56.4098 15.9333 55.6098 15.48C54.8098 15.0133 54.1832 14.36 53.7298 13.52C53.2765 12.6667 53.0498 11.6733 53.0498 10.54Z" fill="white"/>
<path d="M66.6555 3.02C66.3755 3.02 66.1355 2.92 65.9355 2.72C65.7355 2.52 65.6355 2.27333 65.6355 1.98C65.6355 1.68667 65.7355 1.44667 65.9355 1.26C66.1355 1.06 66.3755 0.959999 66.6555 0.959999C66.9355 0.959999 67.1755 1.06 67.3755 1.26C67.5755 1.44667 67.6755 1.68667 67.6755 1.98C67.6755 2.27333 67.5755 2.52 67.3755 2.72C67.1755 2.92 66.9355 3.02 66.6555 3.02ZM67.3555 5.08V16H65.9555V5.08H67.3555Z" fill="white"/>
<path d="M69.8858 10.52C69.8858 9.4 70.1058 8.42 70.5458 7.58C70.9991 6.72667 71.6191 6.07333 72.4058 5.62C73.2058 5.15333 74.1058 4.92 75.1058 4.92C76.1458 4.92 77.0391 5.16 77.7858 5.64C78.5458 6.12 79.0924 6.73333 79.4258 7.48V5.08H80.8258V16H79.4258V13.58C79.0791 14.3267 78.5258 14.9467 77.7658 15.44C77.0191 15.92 76.1258 16.16 75.0858 16.16C74.0991 16.16 73.2058 15.9267 72.4058 15.46C71.6191 14.9933 70.9991 14.3333 70.5458 13.48C70.1058 12.6267 69.8858 11.64 69.8858 10.52ZM79.4258 10.54C79.4258 9.66 79.2458 8.88667 78.8858 8.22C78.5258 7.55333 78.0325 7.04 77.4058 6.68C76.7925 6.32 76.1125 6.14 75.3658 6.14C74.5924 6.14 73.8991 6.31333 73.2858 6.66C72.6724 7.00667 72.1858 7.51333 71.8258 8.18C71.4791 8.83333 71.3058 9.61333 71.3058 10.52C71.3058 11.4133 71.4791 12.2 71.8258 12.88C72.1858 13.5467 72.6724 14.06 73.2858 14.42C73.8991 14.7667 74.5924 14.94 75.3658 14.94C76.1125 14.94 76.7925 14.76 77.4058 14.4C78.0325 14.04 78.5258 13.5267 78.8858 12.86C79.2458 12.1933 79.4258 11.42 79.4258 10.54Z" fill="white"/>
<path d="M24.288 38.624C26.272 39.072 27.84 40.064 28.992 41.6C30.176 43.104 30.768 44.832 30.768 46.784C30.768 49.664 29.776 51.92 27.792 53.552C25.808 55.184 23.024 56 19.44 56H2.688V22.16H18.912C22.368 22.16 25.072 22.928 27.024 24.464C29.008 26 30 28.16 30 30.944C30 32.928 29.472 34.592 28.416 35.936C27.392 37.248 26.016 38.144 24.288 38.624ZM12.096 35.6H16.848C19.216 35.6 20.4 34.624 20.4 32.672C20.4 30.656 19.216 29.648 16.848 29.648H12.096V35.6ZM17.568 48.416C19.936 48.416 21.12 47.424 21.12 45.44C21.12 44.416 20.8 43.632 20.16 43.088C19.552 42.544 18.672 42.272 17.52 42.272H12.096V48.416H17.568Z" fill="#00FF11"/>
<path d="M52.0271 56L45.3071 43.52H44.2991V56H34.8911V22.16H49.7231C52.4431 22.16 54.7471 22.64 56.6351 23.6C58.5231 24.528 59.9471 25.824 60.9071 27.488C61.8671 29.12 62.3471 30.96 62.3471 33.008C62.3471 35.312 61.7071 37.344 60.4271 39.104C59.1791 40.832 57.3391 42.064 54.9071 42.8L62.5391 56H52.0271ZM44.2991 37.088H48.9551C50.2351 37.088 51.1951 36.784 51.8351 36.176C52.4751 35.568 52.7951 34.688 52.7951 33.536C52.7951 32.448 52.4591 31.6 51.7871 30.992C51.1471 30.352 50.2031 30.032 48.9551 30.032H44.2991V37.088Z" fill="#00FF11"/>
<path d="M97.9695 56H88.5615L76.0335 37.088V56H66.6255V22.16H76.0335L88.5615 41.312V22.16H97.9695V56Z" fill="#00FF11"/>
</svg>
